<svg width="28" height="28" viewBox="0 0 28 28" fill="none" xmlns="http://www.w3.org/2000/svg">
<path fill-rule="evenodd" clip-rule="evenodd" d="M7.77931 3.86207C7.77931 1.72911 9.50842 0 11.6414 0H23.3655C25.4985 0 27.2276 1.72911 27.2276 3.86207C27.2276 5.99503 25.4985 7.72414 23.3655 7.72414H11.6414C9.50842 7.72414 7.77931 5.99503 7.77931 3.86207ZM5.83448 3.86207C5.83448 5.46179 4.52839 6.75862 2.91724 6.75862C1.30609 6.75862 0 5.46179 0 3.86207C0 2.26235 1.30609 0.965517 2.91724 0.965517C4.52839 0.965517 5.83448 2.26235 5.83448 3.86207ZM5.83448 14.4828C5.83448 16.0825 4.52839 17.3793 2.91724 17.3793C1.30609 17.3793 0 16.0825 0 14.4828C0 12.883 1.30609 11.5862 2.91724 11.5862C4.52839 11.5862 5.83448 12.883 5.83448 14.4828ZM2.91724 28C4.52839 28 5.83448 26.7032 5.83448 25.1034C5.83448 23.5037 4.52839 22.2069 2.91724 22.2069C1.30609 22.2069 0 23.5037 0 25.1034C0 26.7032 1.30609 28 2.91724 28ZM11.6414 10.6207C9.50842 10.6207 7.77931 12.3498 7.77931 14.4828C7.77931 16.6157 9.50841 18.3448 11.6414 18.3448H18.5034C20.6364 18.3448 22.3655 16.6157 22.3655 14.4828C22.3655 12.3498 20.6364 10.6207 18.5034 10.6207H11.6414Z" fill="url(#paint0_linear_8287_400)"/>
<defs>
<linearGradient id="paint0_linear_8287_400" x1="0" y1="28" x2="36.624" y2="23.605" gradientUnits="userSpaceOnUse">
<stop stop-color="#4986E7"/>
<stop offset="1" stop-color="#31B2C9"/>
</linearGradient>
</defs>
</svg>
