<svg width="580" height="174" viewBox="0 0 580 174" fill="none" xmlns="http://www.w3.org/2000/svg">
<path d="M324.419 24V49.7008H271.588V77.4651H311.119V102.416H271.588V155.693H240V24H324.419Z" fill="#231F1F"/>
<path d="M371.693 24V155.693H341.302V24.0001L371.693 24Z" fill="#231F1F"/>
<path d="M389.651 101.784C389.651 90.9909 391.609 81.5155 395.522 73.3579C399.557 65.2005 405 58.9256 411.851 54.5329C418.699 50.1403 426.342 47.9442 434.78 47.9442C441.996 47.9442 448.297 49.4502 453.678 52.4622C459.18 55.4743 463.401 59.4273 466.336 64.3221V49.4502H497.707V156H466.336V139.622C463.279 144.517 458.998 148.47 453.492 151.482C448.112 154.494 441.814 156 434.598 156C426.283 156 418.699 153.804 411.851 149.411C405 144.893 399.557 138.555 395.522 130.398C391.609 122.115 389.651 112.577 389.651 101.784ZM466.336 101.972C466.336 93.94 464.133 87.6022 459.73 82.9587C455.45 78.3152 450.192 75.9936 443.954 75.9936C437.716 75.9936 432.395 78.3152 427.992 82.9587C423.712 87.4767 421.572 93.7517 421.572 101.784C421.572 109.816 423.712 116.216 427.992 120.985C432.395 125.629 437.716 127.951 443.954 127.951C450.192 127.951 455.45 125.629 459.73 120.985C464.133 116.342 466.336 110.004 466.336 101.972Z" fill="#231F1F"/>
<path d="M579.816 128.467V155.276H563.957C552.658 155.276 543.846 152.503 537.53 146.956C531.21 141.286 528.05 132.103 528.05 119.407V75.4006H515.658V49.1455H528.05V24H559.218V49.1455H579.632V75.4006H559.218V119.777C559.218 122.858 559.948 125.077 561.406 126.433C562.865 127.789 565.294 128.467 568.697 128.467H579.816Z" fill="#231F1F"/>
<path fill-rule="evenodd" clip-rule="evenodd" d="M48 24C48 10.7452 58.7452 0 72 0H144C157.255 0 168 10.7452 168 24C168 37.2548 157.255 48 144 48H72C58.7452 48 48 37.2548 48 24ZM36 24C36 33.9411 27.9411 42 18 42C8.05887 42 0 33.9411 0 24C0 14.0589 8.05887 6 18 6C27.9411 6 36 14.0589 36 24ZM36 90C36 99.9411 27.9411 108 18 108C8.05887 108 0 99.9411 0 90C0 80.0589 8.05887 72 18 72C27.9411 72 36 80.0589 36 90ZM18 174C27.9411 174 36 165.941 36 156C36 146.059 27.9411 138 18 138C8.05887 138 0 146.059 0 156C0 165.941 8.05887 174 18 174ZM72 66C58.7452 66 48 76.7452 48 90C48 103.255 58.7452 114 72 114H114C127.255 114 138 103.255 138 90C138 76.7452 127.255 66 114 66H72Z" fill="url(#paint0_linear_132_594)"/>
<defs>
<linearGradient id="paint0_linear_132_594" x1="0" y1="174" x2="226.024" y2="147.069" gradientUnits="userSpaceOnUse">
<stop stop-color="#4986E7"/>
<stop offset="1" stop-color="#31B2C9"/>
</linearGradient>
</defs>
</svg>
