<svg width="94" height="28" viewBox="0 0 94 28" fill="none" xmlns="http://www.w3.org/2000/svg">
<path d="M52.5781 3.8623V7.99807H44.0159V12.4659H50.4226V16.4809H44.0159V25.0543H38.8965V3.8623H52.5781Z" fill="white"/>
<path d="M60.2398 3.8623V25.0543H55.3145V3.86232L60.2398 3.8623Z" fill="white"/>
<path d="M63.1503 16.3792C63.1503 14.6424 63.4676 13.1176 64.1017 11.8049C64.7557 10.4922 65.6379 9.48245 66.7482 8.77559C67.8581 8.06873 69.0968 7.71533 70.4643 7.71533C71.6338 7.71533 72.655 7.95768 73.527 8.44238C74.4188 8.92707 75.1029 9.5632 75.5786 10.3509V7.95768H80.6628V25.1036H75.5786V22.4681C75.083 23.2557 74.3893 23.8919 73.4969 24.3766C72.6249 24.8613 71.6042 25.1036 70.4348 25.1036C69.0871 25.1036 67.8581 24.7502 66.7482 24.0434C65.6379 23.3163 64.7557 22.2964 64.1017 20.9838C63.4676 19.6508 63.1503 18.116 63.1503 16.3792ZM75.5786 16.4095C75.5786 15.117 75.2215 14.0971 74.5079 13.3498C73.8142 12.6026 72.9621 12.229 71.9511 12.229C70.94 12.229 70.0777 12.6026 69.3642 13.3498C68.6704 14.0769 68.3236 15.0867 68.3236 16.3792C68.3236 17.6717 68.6704 18.7016 69.3642 19.4691C70.0777 20.2163 70.94 20.5899 71.9511 20.5899C72.9621 20.5899 73.8142 20.2163 74.5079 19.4691C75.2215 18.7218 75.5786 17.702 75.5786 16.4095Z" fill="white"/>
<path d="M93.9701 20.6731V24.9873H91.3999C89.5685 24.9873 88.1405 24.541 87.1168 23.6483C86.0926 22.7359 85.5805 21.2582 85.5805 19.2152V12.1337H83.572V7.90871H85.5805V3.8623H90.6317V7.90871H93.9402V12.1337H90.6317V19.2747C90.6317 19.7705 90.7501 20.1276 90.9865 20.3458C91.2228 20.564 91.6165 20.6731 92.1681 20.6731H93.9701Z" fill="white"/>
<path fill-rule="evenodd" clip-rule="evenodd" d="M7.77931 3.86207C7.77931 1.72911 9.50842 0 11.6414 0H23.3655C25.4985 0 27.2276 1.72911 27.2276 3.86207C27.2276 5.99503 25.4985 7.72414 23.3655 7.72414H11.6414C9.50842 7.72414 7.77931 5.99503 7.77931 3.86207ZM5.83448 3.86207C5.83448 5.46179 4.52839 6.75862 2.91724 6.75862C1.30609 6.75862 0 5.46179 0 3.86207C0 2.26235 1.30609 0.965517 2.91724 0.965517C4.52839 0.965517 5.83448 2.26235 5.83448 3.86207ZM5.83448 14.4828C5.83448 16.0825 4.52839 17.3793 2.91724 17.3793C1.30609 17.3793 0 16.0825 0 14.4828C0 12.883 1.30609 11.5862 2.91724 11.5862C4.52839 11.5862 5.83448 12.883 5.83448 14.4828ZM2.91724 28C4.52839 28 5.83448 26.7032 5.83448 25.1034C5.83448 23.5037 4.52839 22.2069 2.91724 22.2069C1.30609 22.2069 0 23.5037 0 25.1034C0 26.7032 1.30609 28 2.91724 28ZM11.6414 10.6207C9.50842 10.6207 7.77931 12.3498 7.77931 14.4828C7.77931 16.6157 9.50841 18.3448 11.6414 18.3448H18.5034C20.6364 18.3448 22.3655 16.6157 22.3655 14.4828C22.3655 12.3498 20.6364 10.6207 18.5034 10.6207H11.6414Z" fill="url(#paint0_linear_8287_364)"/>
<defs>
<linearGradient id="paint0_linear_8287_364" x1="0" y1="28" x2="36.624" y2="23.605" gradientUnits="userSpaceOnUse">
<stop stop-color="#4986E7"/>
<stop offset="1" stop-color="#31B2C9"/>
</linearGradient>
</defs>
</svg>
